<svg version="1" xmlns="http://www.w3.org/2000/svg" width="346.667" height="346.667" viewBox="0 0 260.000000 260.000000"><path d="M93.7 34c-1.6.5-5.2 2.1-8 3.6-8 4.1-15.4 6.4-23.1 7-15.1 1.1-15.2 1.1-21.5 7-3.3 3-7.4 7.7-9.2 10.5-2.3 3.6-5.6 6.7-11.8 10.9-13.7 9.2-13.6 9.1-18.2 28.1-2.8 12-2.4 13.7 6.3 26.7 9 13.6 12.5 17.2 16.9 17.5C33.4 146 45 159.7 45 169c0 3.2-.4 3.4-6.3 3.1-3.5-.3-3.8-.1-4.4 3.1-.8 4-.8 7.4.1 19.8 1.2 16.8 2.8 19.8 12.8 24.8 8.8 4.5 15.6 5 29.9 2.2 13-2.5 16.8-4.6 22.5-11.7 6.6-8.4 9.7-11.3 12-11.3 4.7 0 12.4 13 12.4 21.1 0 6.7 1.6 8.3 7.7 7.7 9.5-.9 21.9-8 39.6-22.6 16.3-13.6 24.9-18.6 36.5-21.6 11.8-3.1 29.8-2.5 43.6 1.4 4 1.1 7.4 1.6 7.9 1.1 1.2-1.2-4.7-15.7-10.3-25.5-9.3-16.2-29.1-39.7-41.2-49-2.1-1.6-3.8-3.2-3.8-3.7s2.9-4 6.3-7.7c12.6-13.3 18.7-21 18.7-23.4 0-2.1-3-2.8-13.5-2.8-10.6-.1-12.1-.6-28.2-10.7-6.2-3.9-13.4-7.6-16-8.2-2.6-.7-8.4-3.2-12.8-5.5-8.4-4.6-15.4-7.1-22-8.1-11.7-1.7-17.7-3-24.8-5.6-7.9-2.9-12.8-3.4-18-1.9z"/></svg>